<svg xmlns="http://www.w3.org/2000/svg" viewBox="0 0 2700 1800" id="404-error">
  <g>
    <path fill="#f9b964" d="m506.44 435.19 18.95 3.12a3.45 3.45 0 0 1 0 6.8l-18.95 3.12a16.93 16.93 0 0 0-13.95 13.95l-3.12 18.95a3.45 3.45 0 0 1-6.8 0l-3.13-18.95a16.92 16.92 0 0 0-13.94-13.95l-19-3.12a3.45 3.45 0 0 1 0-6.8l19-3.12a16.92 16.92 0 0 0 13.94-13.95l3.13-18.95a3.45 3.45 0 0 1 6.8 0l3.12 18.95A16.93 16.93 0 0 0 506.44 435.19ZM2593.29 979.8l15.43 2.54a2.81 2.81 0 0 1 0 5.54l-15.43 2.54a13.78 13.78 0 0 0-11.36 11.36l-2.55 15.43a2.8 2.8 0 0 1-5.53 0l-2.55-15.43a13.78 13.78 0 0 0-11.36-11.36l-15.43-2.54a2.81 2.81 0 0 1 0-5.54l15.43-2.54a13.78 13.78 0 0 0 11.36-11.36l2.55-15.43a2.8 2.8 0 0 1 5.53 0l2.55 15.43A13.78 13.78 0 0 0 2593.29 979.8Z"></path>
    <path fill="#2b3864" d="M93 920.45a2.49 2.49 0 0 1-2.5-2.5v-11a2.5 2.5 0 0 1 5 0v11A2.5 2.5 0 0 1 93 920.45ZM82.14 931.28h-11a2.5 2.5 0 0 1 0-5h11a2.5 2.5 0 0 1 0 5ZM93 953.16a2.49 2.49 0 0 1-2.5-2.5v-11a2.5 2.5 0 1 1 5 0v11A2.5 2.5 0 0 1 93 953.16ZM114.85 931.28h-11a2.5 2.5 0 1 1 0-5h11a2.5 2.5 0 0 1 0 5ZM2364.77 295.59a2.5 2.5 0 0 1-2.5-2.5v-11a2.5 2.5 0 0 1 5 0v11A2.49 2.49 0 0 1 2364.77 295.59ZM2353.94 306.42h-11a2.5 2.5 0 0 1 0-5h11a2.5 2.5 0 0 1 0 5ZM2364.77 328.29a2.5 2.5 0 0 1-2.5-2.5v-11a2.5 2.5 0 0 1 5 0v11A2.49 2.49 0 0 1 2364.77 328.29ZM2386.65 306.42h-11a2.5 2.5 0 0 1 0-5h11a2.5 2.5 0 0 1 0 5ZM1525.39 360.83a2.5 2.5 0 0 1-2.5-2.5v-11a2.5 2.5 0 1 1 5 0v11A2.49 2.49 0 0 1 1525.39 360.83ZM1514.56 371.67h-11a2.5 2.5 0 0 1 0-5h11a2.5 2.5 0 0 1 0 5ZM1525.39 393.54a2.5 2.5 0 0 1-2.5-2.5V380a2.5 2.5 0 0 1 5 0v11A2.49 2.49 0 0 1 1525.39 393.54ZM1547.27 371.67h-11a2.5 2.5 0 0 1 0-5h11a2.5 2.5 0 0 1 0 5Z"></path>
    <path fill="#ff8aa9" d="M1344.92 1322.59a2.5 2.5 0 0 1-2.5-2.5v-11a2.5 2.5 0 0 1 5 0v11A2.5 2.5 0 0 1 1344.92 1322.59ZM1334.08 1333.42h-11a2.5 2.5 0 0 1 0-5h11a2.5 2.5 0 0 1 0 5ZM1344.92 1355.3a2.5 2.5 0 0 1-2.5-2.5v-11a2.5 2.5 0 0 1 5 0v11A2.5 2.5 0 0 1 1344.92 1355.3ZM1366.79 1333.42h-11a2.5 2.5 0 0 1 0-5h11a2.5 2.5 0 0 1 0 5Z"></path>
    <path fill="#f9b964" d="M193.44,1208.62a2.45,2.45,0,0,1-1.76-.73,2.49,2.49,0,0,1,0-3.53l20.73-20.74-20.73-20.73a2.49,2.49,0,0,1,0-3.53l20.73-20.74-20.73-20.73a2.49,2.49,0,0,1,0-3.53l20.73-20.74-20.73-20.73a2.5,2.5,0,0,1,0-3.54l20.73-20.73-20.73-20.73a2.5,2.5,0,0,1,0-3.54l22.5-22.5a2.5,2.5,0,0,1,3.53,3.54L197,1026.12l20.73,20.73a2.5,2.5,0,0,1,0,3.54L197,1071.12l20.73,20.73a2.5,2.5,0,0,1,0,3.54L197,1116.12l20.73,20.74a2.49,2.49,0,0,1,0,3.53L197,1161.12l20.73,20.74a2.49,2.49,0,0,1,0,3.53l-22.5,22.5A2.49,2.49,0,0,1,193.44,1208.62Z"></path>
    <path fill="#ff8aa9" d="M2440.53,889.78a2.5,2.5,0,0,1-1.77-4.27l20.73-20.73-20.73-20.73a2.5,2.5,0,0,1,0-3.54l20.73-20.73-20.73-20.73a2.5,2.5,0,0,1,0-3.54l20.73-20.73-20.73-20.73a2.5,2.5,0,0,1,0-3.54l22.5-22.5a2.5,2.5,0,0,1,3.53,3.54l-20.73,20.73L2464.79,773a2.5,2.5,0,0,1,0,3.54l-20.73,20.73L2464.79,818a2.5,2.5,0,0,1,0,3.54l-20.73,20.73L2464.79,863a2.5,2.5,0,0,1,0,3.54l-22.5,22.5A2.48,2.48,0,0,1,2440.53,889.78Z"></path>
    <path fill="#2b3864" d="M894.27,362.67a2.49,2.49,0,0,1-1.77-.73,2.52,2.52,0,0,1,0-3.54l20.74-20.73L892.5,316.94a2.52,2.52,0,0,1,0-3.54l20.74-20.73L892.5,271.94a2.52,2.52,0,0,1,0-3.54L915,245.9a2.5,2.5,0,0,1,3.54,3.54l-20.73,20.73,20.73,20.73a2.52,2.52,0,0,1,0,3.54l-20.73,20.73,20.73,20.73a2.52,2.52,0,0,1,0,3.54L896,361.94A2.49,2.49,0,0,1,894.27,362.67Z"></path>
    <path fill="#f9b964" d="M1636.2,1586.16a2.51,2.51,0,0,1-1.77-4.27l20.74-20.74-20.74-20.73a2.5,2.5,0,0,1,0-3.53l20.74-20.74-20.74-20.73a2.5,2.5,0,0,1,0-3.53l22.5-22.5a2.5,2.5,0,0,1,3.54,3.53l-20.73,20.73,20.73,20.74a2.49,2.49,0,0,1,0,3.53l-20.73,20.73,20.73,20.74a2.49,2.49,0,0,1,0,3.53l-22.5,22.5A2.5,2.5,0,0,1,1636.2,1586.16Z"></path>
    <path fill="#ff8aa9" d="M1086.12,434.44l-87.39,71.15h52.39l43-35Zm-14.38-65.26L991.39,434.6l-11.45,52,99.77-81.24Zm-14.37-65.26-45.32,36.9-11.45,52,64.73-52.71Z"></path>
    <path fill="#2b3864" d="M975.76,508.09a2.47,2.47,0,0,1-.54,0,2.5,2.5,0,0,1-1.9-3l44.42-201.68a2.49,2.49,0,0,1,2.44-2h37.19a2.49,2.49,0,0,1,2.44,2l44.42,201.68a2.5,2.5,0,1,1-4.88,1.07l-44-199.71h-33.17l-44,199.71A2.5,2.5,0,0,1,975.76,508.09Z"></path>
    <polygon fill="none" stroke="#2b3864" stroke-linecap="round" stroke-linejoin="round" stroke-width="5" points="1129.27 519.86 1123.77 505.59 953.77 505.59 948.28 519.86 1129.27 519.86"></polygon>
    <rect width="414.02" height="287.93" x="1721.48" y="1219.42" fill="#ff8aa9" rx="25.42"></rect>
    <path fill="#fff" d="M1912.93,1277a22.21,22.21,0,0,1,15.56-6.08,22.48,22.48,0,0,1,15.43,6q6.72,6,6.72,19.85,0,4.35-2.11,13.12t-7.62,28.75a181.46,181.46,0,0,0-4.55,20q-1.21,8-3.9,32.21h-7.55q-3.72-30.48-5-37.65a201.29,201.29,0,0,0-5.12-20.11q-4.87-16.52-6.28-22a58.52,58.52,0,0,1-2.17-13.45Q1906.34,1283.1,1912.93,1277Zm-.13,141a22.27,22.27,0,1,1-6.46,15.68A21.37,21.37,0,0,1,1912.8,1418Z"></path>
    <path fill="#f7a552" d="M1412.27,516.64c-199.86,0-361.88,162-361.88,361.88s162,361.87,361.88,361.87,361.87-162,361.87-361.87S1612.13,516.64,1412.27,516.64Zm0,608.31c-136.1,0-246.43-110.33-246.43-246.43s110.33-246.43,246.43-246.43S1658.7,742.42,1658.7,878.52,1548.37,1125,1412.27,1125Z"></path>
    <path fill="#ed5f77" d="M2305.92,958V564.67H2125.43L1842.56,952.61v120.32h346.62v119.44h116.74V1072.93h73.64V958Zm-116.74,0H1976.35l212.83-291Z"></path>
    <polygon fill="#f9b964" points="883.15 957.99 820.84 974.78 820.84 1095.38 766.42 1095.38 766.42 1192.37 883.15 1192.37 883.15 1072.93 956.79 1072.93 956.79 957.99 883.15 957.99"></polygon>
    <polygon fill="#ed5f77" points="702.66 564.67 419.79 952.61 419.79 1072.93 798.39 1072.93 798.39 985 753.71 957.99 553.59 957.99 766.42 667.04 766.42 939.44 798.39 958.77 798.39 957.74 883.15 934.75 883.15 564.67 702.66 564.67"></polygon>
    <polygon fill="none" stroke="#2b3864" stroke-linecap="round" stroke-linejoin="round" stroke-width="5" points="1285.01 261.17 1259.13 276.12 1233.25 261.17 1233.25 231.28 1259.13 216.34 1285.01 231.28 1285.01 261.17"></polygon>
    <path fill="#2b3864" d="M1265.22,246.91a6.37,6.37,0,1,1-6.37-6.37A6.37,6.37,0,0,1,1265.22,246.91Z"></path>
    <polygon fill="none" stroke="#2b3864" stroke-linecap="round" stroke-linejoin="round" stroke-width="5" points="1964.72 677.77 1942.96 640.07 1964.72 602.37 2008.26 602.37 2030.03 640.07 2008.26 677.77 1964.72 677.77"></polygon>
    <path fill="none" stroke="#2b3864" stroke-linecap="round" stroke-linejoin="round" stroke-width="5" d="M1969,640.08a17.47,17.47,0,1,1,17.46,17.46A17.47,17.47,0,0,1,1969,640.08Z"></path>
    <rect width="66.03" height="33.33" x="867.08" y="1159.03" fill="none" stroke="#2b3864" stroke-linecap="round" stroke-linejoin="round" stroke-width="5"></rect>
    <path fill="#2b3864" d="M917 1194.86a2.49 2.49 0 0 1-2.5-2.5V1159a2.5 2.5 0 1 1 5 0v33.33A2.49 2.49 0 0 1 917 1194.86ZM883.15 1194.86a2.49 2.49 0 0 1-2.5-2.5V1159a2.5 2.5 0 0 1 5 0v33.33A2.49 2.49 0 0 1 883.15 1194.86Z"></path>
    <rect width="25.27" height="88.33" x="887.46" y="1192.37" fill="none" stroke="#2b3864" stroke-linecap="round" stroke-linejoin="round" stroke-width="5"></rect>
    <path fill="#2b3864" d="M887.46 1283.2a2.49 2.49 0 0 1-1.77-.73 2.52 2.52 0 0 1 0-3.54L911 1253.66a2.5 2.5 0 0 1 3.53 3.53l-25.27 25.28A2.49 2.49 0 0 1 887.46 1283.2ZM887.46 1260.71a2.49 2.49 0 0 1-1.77-.73 2.52 2.52 0 0 1 0-3.54L911 1231.17a2.5 2.5 0 1 1 3.53 3.53L889.23 1260A2.49 2.49 0 0 1 887.46 1260.71ZM887.46 1238.22a2.49 2.49 0 0 1-1.77-.73 2.52 2.52 0 0 1 0-3.54L911 1208.68a2.5 2.5 0 0 1 3.53 3.54l-25.27 25.27A2.49 2.49 0 0 1 887.46 1238.22ZM887.46 1215.73a2.49 2.49 0 0 1-1.77-.73 2.52 2.52 0 0 1 0-3.54l20.87-20.86a2.5 2.5 0 0 1 3.54 3.53L889.23 1215A2.49 2.49 0 0 1 887.46 1215.73ZM1153.18 1560.93a2.57 2.57 0 0 1-.72-.11c-25.65-7.71-43.57-39.62-43.57-77.61s17.92-69.91 43.57-77.62a2.51 2.51 0 0 1 1.44 4.8c-23.18 7-40 37.59-40 72.82s16.83 65.85 40 72.82a2.5 2.5 0 0 1-.72 4.9Z"></path>
    <path fill="#2b3864" d="M1153.18,1560.93a2.5,2.5,0,0,1-.72-4.9c23.18-7,40-37.59,40-72.82s-16.83-65.86-40-72.82a2.51,2.51,0,0,1,1.44-4.8c25.65,7.71,43.57,39.63,43.57,77.62s-17.92,69.9-43.57,77.61A2.57,2.57,0,0,1,1153.18,1560.93Z"></path>
    <path fill="#2b3864" d="M1153.18,1560.93a2.5,2.5,0,0,1-2.5-2.5V1408a2.5,2.5,0,0,1,5,0v150.44A2.5,2.5,0,0,1,1153.18,1560.93Z"></path>
    <path fill="#2b3864" d="M1228.4 1485.71H1078a2.5 2.5 0 0 1 0-5H1228.4a2.5 2.5 0 0 1 0 5ZM1153.18 1453.79a64.61 64.61 0 0 1-51.66-25.54 2.5 2.5 0 1 1 4-3 60 60 0 0 0 95.37 0 2.5 2.5 0 0 1 4 3A64.57 64.57 0 0 1 1153.18 1453.79ZM1103.5 1542.18a2.44 2.44 0 0 1-1.51-.51 2.49 2.49 0 0 1-.47-3.5 65 65 0 0 1 103.32 0 2.5 2.5 0 1 1-4 3 60 60 0 0 0-95.38 0A2.47 2.47 0 0 1 1103.5 1542.18Z"></path>
    <path fill="none" stroke="#2b3864" stroke-linecap="round" stroke-linejoin="round" stroke-width="5" d="M1078,1483.21a75.22,75.22,0,1,1,75.22,75.22A75.22,75.22,0,0,1,1078,1483.21Z"></path>
    <polygon fill="#ff8aa9" points="2040.77 316.2 2020.02 300.64 2083.02 291.64 2103.77 307.19 2040.77 316.2"></polygon>
    <polygon fill="#ff8aa9" points="2084.27 348.82 2063.53 333.27 2126.53 324.26 2147.27 339.82 2084.27 348.82"></polygon>
    <polygon fill="#ff8aa9" points="2127.77 381.44 2107.03 365.89 2170.02 356.88 2190.77 372.44 2127.77 381.44"></polygon>
    <polygon fill="#ff8aa9" points="2171.27 414.07 2150.53 398.51 2213.53 389.51 2234.27 405.06 2171.27 414.07"></polygon>
    <polygon fill="#ff8aa9" points="2214.77 446.69 2194.03 431.13 2257.03 422.13 2277.77 437.69 2214.77 446.69"></polygon>
    <polygon fill="#ff8aa9" points="2258.27 479.31 2237.53 463.76 2300.53 454.75 2321.27 470.31 2258.27 479.31"></polygon>
    <polygon fill="#ff8aa9" points="2301.77 511.94 2281.03 496.38 2344.03 487.38 2364.77 502.93 2301.77 511.94"></polygon>
    <polygon fill="#ff8aa9" points="2345.27 544.56 2324.53 529 2387.53 520 2408.28 535.56 2345.27 544.56"></polygon>
    <polygon fill="#ff8aa9" points="2388.78 577.18 2368.04 561.63 2431.03 552.62 2451.78 568.18 2388.78 577.18"></polygon>
    <polygon fill="#ff8aa9" points="2432.28 609.81 2411.54 594.25 2474.53 585.25 2495.28 600.8 2432.28 609.81"></polygon>
    <polygon fill="#ff8aa9" points="2475.78 642.43 2455.04 626.87 2518.03 617.87 2538.78 633.43 2475.78 642.43"></polygon>
    <polygon fill="#ff8aa9" points="2519.28 675.05 2498.54 659.5 2561.54 650.49 2582.28 666.05 2519.28 675.05"></polygon>
    <polygon fill="#ff8aa9" points="2562.78 707.68 2542.04 692.12 2605.04 683.12 2625.78 698.67 2562.78 707.68"></polygon>
    <path fill="#2b3864" d="M2628.9 703.51a2.46 2.46 0 0 1-1.5-.5L2060.93 278.19a2.5 2.5 0 0 1 3-4L2630.4 699a2.5 2.5 0 0 1 .5 3.5A2.48 2.48 0 0 1 2628.9 703.51ZM2588.44 729.42a2.45 2.45 0 0 1-1.49-.5L2009.48 295.85a2.5 2.5 0 1 1 3-4l577.46 433.06a2.5 2.5 0 0 1-1.5 4.5Z"></path>
    <polygon fill="#ff8aa9" points="324.92 1111.03 302.41 1098.16 363.82 1081.44 386.32 1094.31 324.92 1111.03"></polygon>
    <polygon fill="#ff8aa9" points="372.12 1138.03 349.61 1125.16 411.02 1108.43 433.52 1121.31 372.12 1138.03"></polygon>
    <polygon fill="#ff8aa9" points="419.32 1165.02 396.81 1152.15 458.21 1135.43 480.72 1148.3 419.32 1165.02"></polygon>
    <polygon fill="#ff8aa9" points="466.52 1192.02 444.01 1179.15 505.42 1162.43 527.92 1175.3 466.52 1192.02"></polygon>
    <polygon fill="#ff8aa9" points="513.72 1219.02 491.21 1206.14 552.61 1189.42 575.12 1202.3 513.72 1219.02"></polygon>
    <polygon fill="#ff8aa9" points="560.92 1246.01 538.41 1233.14 599.82 1216.42 622.32 1229.29 560.92 1246.01"></polygon>
    <polygon fill="#ff8aa9" points="608.12 1273.01 585.61 1260.14 647.01 1243.42 669.52 1256.29 608.12 1273.01"></polygon>
    <polygon fill="#ff8aa9" points="655.32 1300.01 632.81 1287.13 694.22 1270.41 716.72 1283.28 655.32 1300.01"></polygon>
    <polygon fill="#ff8aa9" points="702.52 1327 680.01 1314.13 741.42 1297.41 763.92 1310.28 702.52 1327"></polygon>
    <polygon fill="#ff8aa9" points="749.72 1354 727.21 1341.12 788.62 1324.4 811.12 1337.28 749.72 1354"></polygon>
    <polygon fill="#ff8aa9" points="796.92 1380.99 774.41 1368.12 835.82 1351.4 858.32 1364.27 796.92 1380.99"></polygon>
    <polygon fill="#ff8aa9" points="844.12 1407.99 821.61 1395.12 883.02 1378.4 905.52 1391.27 844.12 1407.99"></polygon>
    <polygon fill="#ff8aa9" points="891.32 1434.98 868.81 1422.11 930.22 1405.39 952.72 1418.27 891.32 1434.98"></polygon>
    <path fill="#f9b964" d="M1777.07,553h-37.68q-.15-8.1-.15-9.86,0-18.26,6.08-30t24.29-26.5q18.23-14.71,21.77-19.29a25.64,25.64,0,0,0,5.49-15.9q0-12-9.71-20.54T1761,422.27q-15.86,0-26.52,9t-14.66,27.48L1681.92,454q1.62-26.48,22.51-44.95t54.82-18.49q35.71,0,56.81,18.63t21.11,43.37a47.53,47.53,0,0,1-7.75,25.91q-7.76,12.23-33.15,33.28-13.14,10.89-16.32,17.52T1777.07,553Zm-37.68,55.8V567.27h37.68v41.49Z"></path>
    <path fill="none" stroke="#2b3864" stroke-linecap="round" stroke-linejoin="round" stroke-width="5" d="M693.66 665.64V649.43c-5.54 0-19.31-1.55-21.2-8.8h0a53.22 53.22 0 0 0-2.79-6.75h0c-3.79-6.47 4.86-17.3 8.77-21.21L667 601.22c-3.91 3.91-14.74 12.57-21.2 8.77h0a53.13 53.13 0 0 0-6.74-2.8h0c-7.25-1.89-8.79-15.66-8.79-21.19H614c0 5.53-1.54 19.3-8.79 21.19h0A54.58 54.58 0 0 0 598.5 610h0c-6.47 3.8-17.3-4.86-21.21-8.77l-11.47 11.47c3.91 3.91 12.57 14.74 8.77 21.21a52.48 52.48 0 0 0-2.79 6.74h0c-1.88 7.26-15.66 8.8-21.2 8.8v16.21c5.54 0 19.32 1.54 21.2 8.8h0a51.89 51.89 0 0 0 2.79 6.74h0c3.8 6.46-4.86 17.29-8.77 21.21l11.47 11.47c3.91-3.91 14.74-12.57 21.21-8.78h0a52.34 52.34 0 0 0 6.73 2.79h0c7.26 1.89 8.79 15.67 8.79 21.2h16.22c0-5.53 1.54-19.31 8.8-21.2h0a53.08 53.08 0 0 0 6.74-2.79h0c6.46-3.8 17.29 4.87 21.2 8.77l11.47-11.46c-3.91-3.92-12.56-14.75-8.77-21.21h0a52.48 52.48 0 0 0 2.79-6.74h0C674.35 667.18 688.14 665.64 693.66 665.64Zm-71.52 11.28a19.39 19.39 0 1 1 19.38-19.39A19.39 19.39 0 0 1 622.14 676.92ZM445.55 1411.67c-10.71 0-15.1-7.59-9.75-16.86l105-181.8c5.37-9.28 14.13-9.28 19.48 0l105 181.8c5.35 9.27 1 16.86-9.73 16.86Z"></path>
    <path fill="#2b3864" d="M550.5 1353.88a2.49 2.49 0 0 1-2.5-2.5v-88.19a2.5 2.5 0 0 1 5 0v88.19A2.49 2.49 0 0 1 550.5 1353.88ZM544.38 1377a6.12 6.12 0 1 1 6.12 6.12A6.12 6.12 0 0 1 544.38 1377Z"></path>
    <polygon fill="#ff8aa9" points="380.09 804.43 364.45 788.78 336.87 816.36 309.29 788.78 293.64 804.43 321.23 832 293.64 859.58 309.29 875.23 336.87 847.65 364.45 875.23 380.09 859.58 352.51 832 380.09 804.43"></polygon>
    <polygon fill="#f7a552" points="2472.27 1203.24 2456.13 1187.1 2427.67 1215.56 2399.21 1187.1 2383.07 1203.24 2411.53 1231.7 2383.07 1260.16 2399.21 1276.3 2427.67 1247.85 2456.13 1276.3 2472.27 1260.16 2443.81 1231.7 2472.27 1203.24"></polygon>
    <path fill="#2b3864" d="M1412.57 1164.83A311.43 311.43 0 0 1 1217 1096.74a2.5 2.5 0 0 1 3.11-3.92 306.43 306.43 0 0 0 192.42 67c4.23 0 8.51-.09 12.74-.26a2.44 2.44 0 0 1 2.6 2.4 2.5 2.5 0 0 1-2.39 2.6C1421.22 1164.74 1416.87 1164.83 1412.57 1164.83ZM1861.92 1336.46a3.51 3.51 0 0 1-.55 0 2.51 2.51 0 0 1-1.89-3c7.83-35.23-4.6-70.43-29.56-83.69-19.18-10.19-189.26-100.81-252.64-142.77a2.5 2.5 0 1 1 2.75-4.17c63.19 41.83 233.08 132.35 252.24 142.53 26.9 14.29 40.4 51.8 32.09 89.19A2.51 2.51 0 0 1 1861.92 1336.46Z"></path>
    <path fill="#2b3864" d="M960.76,1336.46a2.54,2.54,0,0,1-.61-.07,2.5,2.5,0,0,1-1.81-3c12.82-50.65,54.26-100.7,123.15-148.76,68.14-47.53,140.24-76.65,160.72-84.44,5.2-2,12.1-4.15,19.42-6.44,7-2.2,14.22-4.47,20.44-6.72,18.68-11.33,37-28.74,40.72-33.71,3-4.07,7.26-28,8.11-52.74a2.45,2.45,0,0,1,2.59-2.42,2.5,2.5,0,0,1,2.41,2.59c-.76,21.89-4.46,49.36-9.11,55.57-4.45,5.93-23.43,23.69-42.37,35.13a2.66,2.66,0,0,1-.6.26c-6.33,2.3-13.63,4.59-20.69,6.81-7.25,2.27-14.09,4.41-19.15,6.34-20.34,7.74-92,36.67-159.63,83.87-67.88,47.35-108.64,96.44-121.16,145.89A2.51,2.51,0,0,1,960.76,1336.46Z"></path>
    <path fill="#2b3864" d="M1358.12 1016.68a2.58 2.58 0 0 1-1-.19 142.18 142.18 0 0 1-87-131.18V872.83h-10.28c-7.9 0-13.41-10-13.41-19V820.11a14.34 14.34 0 0 1 23.69-10.88V796.87a2.5 2.5 0 0 1 5 0v23.24a2.5 2.5 0 0 1-5 0 9.35 9.35 0 1 0-18.69 0v33.76c0 6.32 3.75 14 8.41 14h12.78a2.5 2.5 0 0 1 2.5 2.5v15a137.18 137.18 0 0 0 83.9 126.57 2.5 2.5 0 0 1-1 4.8ZM1548.24 922a2.55 2.55 0 0 1-.61-.08 2.5 2.5 0 0 1-1.82-3 137.84 137.84 0 0 0 4.13-33.54v-15a2.49 2.49 0 0 1 2.5-2.5h12.77c4.66 0 8.41-7.64 8.41-14V820.11a9.34 9.34 0 1 0-18.68 0 2.5 2.5 0 1 1-5 0 14.34 14.34 0 1 1 28.68 0v33.76c0 9-5.5 19-13.41 19h-10.27v12.48a142.87 142.87 0 0 1-4.28 34.76A2.5 2.5 0 0 1 1548.24 922ZM1361.86 819.46a7.82 7.82 0 0 0-7.82 7.82v9.45a7.82 7.82 0 0 0 15.64 0v-9.45A7.82 7.82 0 0 0 1361.86 819.46ZM1413.55 870.86a12.38 12.38 0 0 1-8.71-3.55 2.5 2.5 0 0 1 3.49-3.58 7.47 7.47 0 0 0 12.69-5.34 105.8 105.8 0 0 0-6.77-35.61 2.5 2.5 0 0 1 4.65-1.83 109.79 109.79 0 0 1 7.12 37.44A12.48 12.48 0 0 1 1413.55 870.86ZM1378.81 811a2.5 2.5 0 0 1-2.24-1.37c-1.68-3.33-6.62-7.47-12.8-8.94a20.5 20.5 0 0 0-17.37 3.81 2.5 2.5 0 0 1-3-4 25.35 25.35 0 0 1 21.5-4.65c8.06 1.91 13.9 7.18 16.11 11.54a2.51 2.51 0 0 1-2.23 3.63ZM1463.27 819.46a7.82 7.82 0 0 1 7.82 7.82v9.45a7.82 7.82 0 0 1-15.64 0v-9.45A7.82 7.82 0 0 1 1463.27 819.46ZM1494 818.54a2.5 2.5 0 0 1-2.48-2.23 20.45 20.45 0 0 0-9-15.36c-5.27-3.55-11.66-4.38-15.25-3.37a2.5 2.5 0 0 1-1.36-4.81c4.71-1.33 12.54-.6 19.4 4a25.33 25.33 0 0 1 11.14 19 2.5 2.5 0 0 1-2.21 2.76Z"></path>
    <path fill="#2b3864" d="M1551.73,799.39c-3.9,0-8.84-1.87-15.12-5.69-17.29-10.51-25.24-27.25-27.45-57.79a6.48,6.48,0,0,0-10.64-4.45c-20.32,17.21-49.24,25.93-86,25.93s-65.64-8.72-86-25.93a6.49,6.49,0,0,0-10.65,4.46c-2.22,30.89-10.18,47.64-27.48,57.8-9.33,5.48-15.7,6.83-20,4.25-5.53-3.27-5.29-11.43-5.1-18,0-1.06.06-2.08.06-3s0-2.06,0-3.48c-.73-58.09,9.21-128.58,60.69-134.56a17,17,0,0,0,9.58-4.3c7.34-6.69,29.72-22.25,78.93-22.25s71.59,15.56,78.93,22.25a17,17,0,0,0,9.57,4.3c51.49,6,61.42,76.47,60.69,134.56,0,1.41,0,2.58,0,3.48s0,1.84,0,2.86c.17,6.71.39,15.07-5.26,18.34A9.39,9.39,0,0,1,1551.73,799.39Zm-49-74.47a11.52,11.52,0,0,1,11.47,10.63c2.07,28.72,9.33,44.32,25,53.87,9.55,5.8,13.39,5.26,14.82,4.43,3.08-1.78,2.89-8.78,2.76-13.88,0-1.06,0-2.07,0-3s0-2.1,0-3.54c.71-56-8.48-124-56.26-129.53a22,22,0,0,1-12.37-5.57c-6.91-6.3-28.1-21-75.56-21s-68.66,14.65-75.57,21a22,22,0,0,1-12.36,5.57c-47.78,5.54-57,73.5-56.27,129.53,0,1.44,0,2.63,0,3.54s0,2-.06,3.15c-.14,5-.34,11.77,2.65,13.54,1.43.85,5.28,1.43,15-4.27,15.69-9.21,22.94-24.81,25-53.84a11.48,11.48,0,0,1,18.86-7.92c19.12,16.2,47.72,24.75,82.72,24.75s63.6-8.56,82.71-24.75A11.45,11.45,0,0,1,1502.68,724.92Z"></path>
    <path fill="#2b3864" d="M1506.08 901.08c-6.41 0-13.66-2.47-21.23-7.34-23.86-15.33-51.64-15.1-68.25-15-3.06 0-5.61 0-8.67 0-16.59-.12-44.38-.35-68.24 15-11.93 7.67-23.06 9.4-31.35 4.87-7.43-4.06-11.7-12.75-11.7-23.84v-77.9a2.5 2.5 0 0 1 5 0v77.9c0 9.21 3.32 16.29 9.1 19.45 6.6 3.61 15.93 1.95 26.25-4.69 25.11-16.14 53.84-15.9 71-15.77 3 0 5.55 0 8.58 0 17.15-.15 45.88-.37 71 15.77 10.32 6.64 19.64 8.3 26.25 4.69 5.78-3.15 9.09-10.24 9.09-19.45v-77.9a2.5 2.5 0 0 1 5 0v77.9c0 11.09-4.26 19.78-11.69 23.84A20.91 20.91 0 0 1 1506.08 901.08ZM1272.7 872.83a2.5 2.5 0 0 1-2.5-2.5V832a2.5 2.5 0 0 1 5 0v38.32A2.5 2.5 0 0 1 1272.7 872.83ZM1552.44 872.83a2.49 2.49 0 0 1-2.5-2.5V832a2.5 2.5 0 1 1 5 0v38.32A2.5 2.5 0 0 1 1552.44 872.83ZM1567.26 1136.19a2.5 2.5 0 0 1-2.1-3.85c22.11-34.52 9.56-73.7 3.14-88.94-10-23.76-9.13-49.79-8.36-72.75 1-31.08.71-48.72-18.6-49.94-10.77-.63-16.07 16.75-21.7 35.2s-11.4 37.29-23.82 44.79c-8.51 5.13-36.07-9.61-80.44-34.48-19-10.64-36.89-20.68-50.05-26.6-14.2-6.39-22 2.72-25.43 8.71a19.11 19.11 0 0 0 7.18 26.06l87.08 52.19a2.5 2.5 0 0 1-2.57 4.29l-87-52.16a24.11 24.11 0 0 1-9-32.85c7.22-12.71 18.83-16.65 31.83-10.8 13.36 6 31.37 16.11 50.45 26.8 29 16.26 68.77 38.57 75.4 34.56 10.79-6.51 16.3-24.54 21.62-42 6.23-20.39 12.17-39.71 26.8-38.73 25.1 1.58 24.26 26.38 23.29 55.1-.76 22.45-1.62 47.89 8 70.64 6.72 16 19.85 57.06-3.54 93.58A2.52 2.52 0 0 1 1567.26 1136.19Z"></path>
    <path fill="#2b3864" d="M1498.27 1177.45c-56.93 0-90.74-18.46-109.08-34-8.65-7.31-13-15.46-12.9-24.24.11-9.21 5.15-17.12 10.37-22-15.82-25.14-3.69-39.19 2.62-44.26-10.73-30.89 8.23-41.12 14.4-43.55a2.5 2.5 0 0 1 1.83 4.66c-6.68 2.62-21.11 11.67-10.91 38.91a2.49 2.49 0 0 1-.91 2.93c-5.9 4.09-17.86 16.21-1.68 40.37a2.51 2.51 0 0 1-.5 3.34c-4.66 3.76-10.12 11.16-10.22 19.66-.08 7.21 3.67 14.06 11.13 20.36 17.7 15 50.43 32.77 105.85 32.77a126.2 126.2 0 0 0 29.62-3.42 2.5 2.5 0 1 1 1.18 4.85A130.81 130.81 0 0 1 1498.27 1177.45ZM1449.3 931.28a2.47 2.47 0 0 1-1.72-.68c-3.52-3.32-12.9-11-24.06-11a2.5 2.5 0 0 1 0-5c13 0 23.54 8.67 27.49 12.4a2.5 2.5 0 0 1-1.71 4.32Z"></path>
  </g>
</svg>
