<svg width="23" height="24" viewBox="0 0 23 24" fill="none" xmlns="http://www.w3.org/2000/svg">
<circle cx="11.5" cy="12.5" r="11" fill="white" stroke="#E2E8F0"/>
<path d="M16.1377 15.8281C16.1377 16.0234 16.0596 16.2187 15.9189 16.3594L14.8564 17.4219C14.7158 17.5625 14.5205 17.6406 14.3252 17.6406C14.1299 17.6406 13.9346 17.5625 13.7939 17.4219L11.4971 15.125L9.2002 17.4219C9.05957 17.5625 8.86426 17.6406 8.66895 17.6406C8.47363 17.6406 8.27832 17.5625 8.1377 17.4219L7.0752 16.3594C6.93457 16.2187 6.85645 16.0234 6.85645 15.8281C6.85645 15.6328 6.93457 15.4375 7.0752 15.2969L9.37207 13L7.0752 10.7031C6.93457 10.5625 6.85645 10.3672 6.85645 10.1719C6.85645 9.97656 6.93457 9.78125 7.0752 9.64062L8.1377 8.57812C8.27832 8.4375 8.47363 8.35937 8.66895 8.35937C8.86426 8.35937 9.05957 8.4375 9.2002 8.57812L11.4971 10.875L13.7939 8.57812C13.9346 8.4375 14.1299 8.35937 14.3252 8.35937C14.5205 8.35937 14.7158 8.4375 14.8564 8.57812L15.9189 9.64062C16.0596 9.78125 16.1377 9.97656 16.1377 10.1719C16.1377 10.3672 16.0596 10.5625 15.9189 10.7031L13.6221 13L15.9189 15.2969C16.0596 15.4375 16.1377 15.6328 16.1377 15.8281Z" fill="#475569"/>
</svg>
